<svg width="32" height="32" viewBox="0 0 32 32" fill="none" xmlns="http://www.w3.org/2000/svg">
<path d="M15.15 19.7375C16.4917 18.8463 17.5108 17.5467 18.0565 16.0313C18.6022 14.5158 18.6455 12.8649 18.18 11.3229C17.7145 9.78086 16.7649 8.42969 15.4718 7.4693C14.1787 6.50892 12.6108 5.99036 11 5.99036C9.3893 5.99036 7.82136 6.50892 6.52825 7.4693C5.23514 8.42969 4.28557 9.78086 3.82007 11.3229C3.35457 12.8649 3.39787 14.5158 3.94357 16.0313C4.48927 17.5467 5.50836 18.8463 6.85004 19.7375C4.56126 20.5792 2.58514 22.1016 1.18754 24.1C1.09645 24.2056 1.02844 24.329 0.987863 24.4624C0.94729 24.5958 0.935055 24.7362 0.951946 24.8746C0.968836 25.013 1.01448 25.1463 1.08594 25.266C1.1574 25.3857 1.25311 25.4892 1.36691 25.5697C1.48071 25.6502 1.6101 25.7061 1.74676 25.7337C1.88343 25.7612 2.02435 25.7599 2.16048 25.7298C2.29661 25.6997 2.42494 25.6415 2.53723 25.5589C2.64953 25.4763 2.74331 25.3711 2.81254 25.25C3.73663 23.9373 4.96285 22.8659 6.38779 22.1264C7.81274 21.3868 9.39462 21.0008 11 21.0008C12.6055 21.0008 14.1873 21.3868 15.6123 22.1264C17.0372 22.8659 18.2634 23.9373 19.1875 25.25C19.2568 25.3711 19.3506 25.4763 19.4628 25.5589C19.5751 25.6415 19.7035 25.6997 19.8396 25.7298C19.9757 25.7599 20.1167 25.7612 20.2533 25.7337C20.39 25.7061 20.5194 25.6502 20.6332 25.5697C20.747 25.4892 20.8427 25.3857 20.9141 25.266C20.9856 25.1463 21.0312 25.013 21.0481 24.8746C21.065 24.7362 21.0528 24.5958 21.0122 24.4624C20.9716 24.329 20.9036 24.2056 20.8125 24.1C19.4149 22.1016 17.4388 20.5792 15.15 19.7375V19.7375ZM5.50004 13.5001C5.50004 12.4123 5.82261 11.3489 6.42696 10.4444C7.03131 9.53995 7.89029 8.835 8.89528 8.41872C9.90028 8.00244 11.0061 7.89352 12.073 8.10574C13.1399 8.31796 14.1199 8.84178 14.8891 9.61097C15.6583 10.3802 16.1821 11.3602 16.3944 12.4271C16.6066 13.494 16.4977 14.5998 16.0814 15.6048C15.6651 16.6098 14.9601 17.4688 14.0557 18.0731C13.1512 18.6775 12.0878 19.0001 11 19.0001C9.54135 19.0001 8.14241 18.4206 7.11096 17.3891C6.07951 16.3577 5.50004 14.9587 5.50004 13.5001ZM30.7625 25.4875C30.6562 25.5641 30.5357 25.6187 30.4081 25.6482C30.2804 25.6777 30.1482 25.6815 30.019 25.6594C29.8899 25.6373 29.7665 25.5897 29.6559 25.5195C29.5453 25.4492 29.4499 25.3576 29.375 25.25C28.4503 23.9379 27.2239 22.8669 25.7992 22.1274C24.3744 21.3878 22.7928 21.0012 21.1875 21C20.9223 21 20.668 20.8947 20.4804 20.7072C20.2929 20.5196 20.1875 20.2653 20.1875 20.0001C20.1875 19.7348 20.2929 19.4805 20.4804 19.2929C20.668 19.1054 20.9223 19.0001 21.1875 19.0001C22.6462 19.0001 24.0452 18.4206 25.0766 17.3891C26.1081 16.3577 26.6875 14.9587 26.6875 13.5001C26.6875 12.0414 26.1081 10.6424 25.0766 9.61097C24.0452 8.57952 22.6462 8.00006 21.1875 8.00006C20.6852 8.0034 20.1854 8.0706 19.7 8.20005C19.5736 8.23631 19.4413 8.24728 19.3107 8.23233C19.1801 8.21739 19.0536 8.17683 18.9387 8.11297C18.8238 8.04911 18.7225 7.96321 18.6408 7.86018C18.5591 7.75715 18.4985 7.63903 18.4625 7.51256C18.3927 7.25735 18.4256 6.98497 18.5541 6.75369C18.6826 6.5224 18.8965 6.35061 19.15 6.27506C19.8145 6.09614 20.4994 6.00371 21.1875 6.00006C22.7999 5.99425 24.3711 6.50911 25.6674 7.46803C26.9637 8.42695 27.9158 9.77871 28.3821 11.3222C28.8484 12.8657 28.8039 14.5186 28.2554 16.0348C27.7068 17.551 26.6835 18.8497 25.3375 19.7375C27.6278 20.5826 29.607 22.1041 31.0125 24.1C31.1626 24.3175 31.2205 24.5854 31.1736 24.8453C31.1268 25.1053 30.979 25.3362 30.7625 25.4875V25.4875Z" fill="white"/>
</svg>
